{
    "asset" : {
        "generator" : "Khronos glTF Blender I/O v1.2.75",
        "version" : "2.0"
    },
    "scene" : 0,
    "scenes" : [
        {
            "name" : "Scene",
            "nodes" : [
                0,
                1,
                2,
                3
            ]
        }
    ],
    "nodes" : [
        {
            "mesh" : 0,
            "name" : "Cube",
            "translation" : [
                -0.04322586953639984,
                1.1517525911331177,
                0.19802266359329224
            ]
        },
        {
            "name" : "Light",
            "rotation" : [
                0.24250070750713348,
                0.744246244430542,
                -0.22993406653404236,
                0.578291654586792
            ],
            "translation" : [
                14.760986328125,
                26.74615478515625,
                -7.065808296203613
            ]
        },
        {
            "name" : "Camera",
            "rotation" : [
                0.483536034822464,
                0.33687159419059753,
                -0.20870360732078552,
                0.7804827094078064
            ],
            "translation" : [
                7.358891487121582,
                4.958309173583984,
                6.925790786743164
            ]
        },
        {
            "mesh" : 1,
            "name" : "Plane",
            "scale" : [
                15.555069923400879,
                15.555069923400879,
                15.555069923400879
            ]
        }
    ],
    "materials" : [
        {
            "doubleSided" : true,
            "name" : "Material",
            "pbrMetallicRoughness" : {}
        },
        {
            "doubleSided" : true,
            "name" : "Material.001",
            "pbrMetallicRoughness" : {}
        }
    ],
    "meshes" : [
        {
            "name" : "Cube",
            "primitives" : [
                {
                    "attributes" : {
                        "POSITION" : 0,
                        "NORMAL" : 1,
                        "TEXCOORD_0" : 2
                    },
                    "indices" : 3,
                    "material" : 0
                }
            ]
        },
        {
            "name" : "Plane",
            "primitives" : [
                {
                    "attributes" : {
                        "POSITION" : 4,
                        "NORMAL" : 5,
                        "TEXCOORD_0" : 6
                    },
                    "indices" : 7,
                    "material" : 1
                }
            ]
        }
    ],
    "accessors" : [
        {
            "bufferView" : 0,
            "componentType" : 5126,
            "count" : 7862,
            "max" : [
                1,
                1,
                1
            ],
            "min" : [
                -1,
                -1,
                -1
            ],
            "type" : "VEC3"
        },
        {
            "bufferView" : 1,
            "componentType" : 5126,
            "count" : 7862,
            "type" : "VEC3"
        },
        {
            "bufferView" : 2,
            "componentType" : 5126,
            "count" : 7862,
            "type" : "VEC2"
        },
        {
            "bufferView" : 3,
            "componentType" : 5123,
            "count" : 45822,
            "type" : "SCALAR"
        },
        {
            "bufferView" : 4,
            "componentType" : 5126,
            "count" : 4,
            "max" : [
                1,
                0,
                1
            ],
            "min" : [
                -1,
                0,
                -1
            ],
            "type" : "VEC3"
        },
        {
            "bufferView" : 5,
            "componentType" : 5126,
            "count" : 4,
            "type" : "VEC3"
        },
        {
            "bufferView" : 6,
            "componentType" : 5126,
            "count" : 4,
            "type" : "VEC2"
        },
        {
            "bufferView" : 7,
            "componentType" : 5123,
            "count" : 6,
            "type" : "SCALAR"
        }
    ],
    "bufferViews" : [
        {
            "buffer" : 0,
            "byteLength" : 94344,
            "byteOffset" : 0
        },
        {
            "buffer" : 0,
            "byteLength" : 94344,
            "byteOffset" : 94344
        },
        {
            "buffer" : 0,
            "byteLength" : 62896,
            "byteOffset" : 188688
        },
        {
            "buffer" : 0,
            "byteLength" : 91644,
            "byteOffset" : 251584
        },
        {
            "buffer" : 0,
            "byteLength" : 48,
            "byteOffset" : 343228
        },
        {
            "buffer" : 0,
            "byteLength" : 48,
            "byteOffset" : 343276
        },
        {
            "buffer" : 0,
            "byteLength" : 32,
            "byteOffset" : 343324
        },
        {
            "buffer" : 0,
            "byteLength" : 12,
            "byteOffset" : 343356
        }
    ],
    "buffers" : [
        {
            "byteLength" : 343368,
            "uri" : "data:application/octet-stream;base64,"
        }
    ]
}
